#N canvas 387 154 557 361 10;
#X obj 213 296 sendOSC;
#X floatatom 221 113 2 1 12 0 - - -;
#X floatatom 252 113 2 1 31 0 - - -;
#X obj 386 128 dumpOSC 10000;
#X msg 75 59 disconnect;
#X floatatom 411 238 5 30000 80000 0 - - -;
#X floatatom 179 113 4 1950 2050 0 - - -;
#X obj 161 181 bng 15 250 50 0 empty empty empty 0 -6 0 8 -262144 -1
-1;
#X text 134 111 civil;
#X text 375 236 mjd;
#X obj 422 271 bng 15 250 50 0 empty empty empty 0 -6 0 8 -262144 -1
-1;
#X msg 18 25 connect 192.168.1.2 10000;
#X obj 199 221 pack f f f;
#X msg 145 257 send /getmjd/civil \$1 \$2 \$3;
#X obj 250 141 t b f;
#X obj 201 141 t b f;
#X obj 377 164 OSCroute /getmjd;
#X obj 386 202 OSCroute /mjd;
#X connect 1 0 15 0;
#X connect 2 0 14 0;
#X connect 3 0 16 0;
#X connect 4 0 0 0;
#X connect 5 0 10 0;
#X connect 6 0 12 0;
#X connect 6 0 7 0;
#X connect 7 0 12 0;
#X connect 11 0 0 0;
#X connect 12 0 13 0;
#X connect 13 0 0 0;
#X connect 14 0 7 0;
#X connect 14 1 12 2;
#X connect 15 0 7 0;
#X connect 15 1 12 1;
#X connect 16 0 17 0;
#X connect 17 0 5 0;
