#N canvas 316 97 535 469 10;
#X msg 316 369 \; pd dsp 1;
#X obj 222 404 dac~;
#X obj 217 357 *~ 0.2;
#N canvas 590 97 453 629 octshift 0;
#X obj 65 33 inlet;
#X obj 221 33 inlet;
#X floatatom 64 147 5 0 0 0 - - -;
#X obj 72 116 -;
#X obj 65 77 t f f;
#X obj 59 261 moses 0;
#X obj 61 299 bng 15 250 50 0 empty empty empty 0 -6 0 8 -262144 -1
-1;
#X obj 94 299 bng 15 250 50 0 empty empty empty 0 -6 0 8 -262144 -1
-1;
#X obj 62 220 spigot;
#X obj 64 182 t f f;
#X obj 151 513 outlet;
#X obj 79 369 line;
#X floatatom 220 146 5 0 0 0 - - -;
#X obj 228 115 -;
#X obj 221 76 t f f;
#X obj 215 260 moses 0;
#X obj 217 298 bng 15 250 50 0 empty empty empty 0 -6 0 8 -262144 -1
-1;
#X obj 251 298 bng 15 250 50 0 empty empty empty 0 -6 0 8 -262144 -1
-1;
#X obj 218 219 spigot;
#X obj 220 181 t f f;
#X obj 235 368 line;
#X obj 162 467 +;
#X obj 153 420 t b f;
#X msg 267 322 12 40;
#X msg 110 324 -12 40;
#X msg 38 323 0 10;
#X msg 196 323 0 10;
#X connect 0 0 4 0;
#X connect 1 0 14 0;
#X connect 2 0 9 0;
#X connect 3 0 2 0;
#X connect 4 0 3 1;
#X connect 4 1 3 0;
#X connect 5 0 6 0;
#X connect 5 0 25 0;
#X connect 5 1 7 0;
#X connect 5 1 24 0;
#X connect 8 0 5 0;
#X connect 9 0 8 0;
#X connect 9 1 8 1;
#X connect 11 0 21 0;
#X connect 12 0 19 0;
#X connect 13 0 12 0;
#X connect 14 0 13 1;
#X connect 14 1 13 0;
#X connect 15 0 16 0;
#X connect 15 0 26 0;
#X connect 15 1 17 0;
#X connect 15 1 23 0;
#X connect 18 0 15 0;
#X connect 19 0 18 0;
#X connect 19 1 18 1;
#X connect 20 0 22 0;
#X connect 21 0 10 0;
#X connect 22 0 21 0;
#X connect 22 1 21 1;
#X connect 23 0 20 0;
#X connect 24 0 11 0;
#X connect 25 0 11 0;
#X connect 26 0 20 0;
#X restore 338 103 pd octshift;
#N canvas 368 158 686 603 oscs 0;
#X obj 44 38 inlet;
#X obj 97 37 inlet;
#X obj 147 38 inlet;
#X obj 200 38 inlet;
#N canvas 97 75 604 667 osc 0;
#X floatatom 58 134 5 0 0 0 - - -;
#X obj 66 103 -;
#X obj 59 64 t f f;
#X obj 53 248 moses 0;
#X obj 61 282 bng 15 250 50 0 empty empty empty 0 -6 0 8 -262144 -1
-1;
#X obj 84 282 bng 15 250 50 0 empty empty empty 0 -6 0 8 -262144 -1
-1;
#X obj 56 207 spigot;
#X obj 58 169 t f f;
#X obj 59 27 inlet;
#X obj 166 334 osc~;
#X obj 166 252 mtof;
#X obj 67 391 *~;
#X obj 59 350 line~;
#X msg 38 310 0 10;
#X msg 92 310 1 10;
#X obj 135 27 inlet;
#X obj 50 428 outlet~;
#X obj 209 26 inlet;
#X obj 174 111 +;
#X obj 209 63 t b f;
#X obj 169 291 +~;
#X obj 283 25 inlet~;
#X connect 0 0 7 0;
#X connect 1 0 0 0;
#X connect 2 0 1 1;
#X connect 2 1 1 0;
#X connect 3 0 4 0;
#X connect 3 0 13 0;
#X connect 3 1 5 0;
#X connect 3 1 14 0;
#X connect 6 0 3 0;
#X connect 7 0 6 0;
#X connect 7 1 6 1;
#X connect 8 0 2 0;
#X connect 9 0 11 0;
#X connect 10 0 20 0;
#X connect 11 0 16 0;
#X connect 12 0 11 1;
#X connect 13 0 12 0;
#X connect 14 0 12 0;
#X connect 15 0 18 0;
#X connect 17 0 19 0;
#X connect 18 0 10 0;
#X connect 19 0 18 0;
#X connect 19 1 18 1;
#X connect 20 0 9 0;
#X connect 21 0 20 1;
#X restore 74 184 pd osc;
#X msg 131 132 60;
#X obj 252 38 inlet;
#X obj 303 37 inlet;
#X msg 167 133 64;
#X msg 208 134 65;
#X msg 253 135 67;
#X msg 296 134 71;
#X msg 338 134 72;
#X obj 216 246 outlet~;
#X obj 217 79 loadbang;
#X obj 353 37 inlet;
#X obj 403 37 inlet~;
#N canvas 97 75 608 671 osc 0;
#X floatatom 58 134 5 0 0 0 - - -;
#X obj 66 103 -;
#X obj 59 64 t f f;
#X obj 53 248 moses 0;
#X obj 61 282 bng 15 250 50 0 empty empty empty 0 -6 0 8 -262144 -1
-1;
#X obj 84 282 bng 15 250 50 0 empty empty empty 0 -6 0 8 -262144 -1
-1;
#X obj 56 207 spigot;
#X obj 58 169 t f f;
#X obj 59 27 inlet;
#X obj 166 334 osc~;
#X obj 166 252 mtof;
#X obj 67 391 *~;
#X obj 59 350 line~;
#X msg 38 310 0 10;
#X msg 92 310 1 10;
#X obj 135 27 inlet;
#X obj 50 428 outlet~;
#X obj 209 26 inlet;
#X obj 174 111 +;
#X obj 209 63 t b f;
#X obj 169 291 +~;
#X obj 283 25 inlet~;
#X connect 0 0 7 0;
#X connect 1 0 0 0;
#X connect 2 0 1 1;
#X connect 2 1 1 0;
#X connect 3 0 4 0;
#X connect 3 0 13 0;
#X connect 3 1 5 0;
#X connect 3 1 14 0;
#X connect 6 0 3 0;
#X connect 7 0 6 0;
#X connect 7 1 6 1;
#X connect 8 0 2 0;
#X connect 9 0 11 0;
#X connect 10 0 20 0;
#X connect 11 0 16 0;
#X connect 12 0 11 1;
#X connect 13 0 12 0;
#X connect 14 0 12 0;
#X connect 15 0 18 0;
#X connect 17 0 19 0;
#X connect 18 0 10 0;
#X connect 19 0 18 0;
#X connect 19 1 18 1;
#X connect 20 0 9 0;
#X connect 21 0 20 1;
#X restore 131 185 pd osc;
#N canvas 97 75 604 667 osc 0;
#X floatatom 58 134 5 0 0 0 - - -;
#X obj 66 103 -;
#X obj 59 64 t f f;
#X obj 53 248 moses 0;
#X obj 61 282 bng 15 250 50 0 empty empty empty 0 -6 0 8 -262144 -1
-1;
#X obj 84 282 bng 15 250 50 0 empty empty empty 0 -6 0 8 -262144 -1
-1;
#X obj 56 207 spigot;
#X obj 58 169 t f f;
#X obj 59 27 inlet;
#X obj 166 334 osc~;
#X obj 166 252 mtof;
#X obj 67 391 *~;
#X obj 59 350 line~;
#X msg 38 310 0 10;
#X msg 92 310 1 10;
#X obj 135 27 inlet;
#X obj 50 428 outlet~;
#X obj 209 26 inlet;
#X obj 174 111 +;
#X obj 209 63 t b f;
#X obj 169 291 +~;
#X obj 283 25 inlet~;
#X connect 0 0 7 0;
#X connect 1 0 0 0;
#X connect 2 0 1 1;
#X connect 2 1 1 0;
#X connect 3 0 4 0;
#X connect 3 0 13 0;
#X connect 3 1 5 0;
#X connect 3 1 14 0;
#X connect 6 0 3 0;
#X connect 7 0 6 0;
#X connect 7 1 6 1;
#X connect 8 0 2 0;
#X connect 9 0 11 0;
#X connect 10 0 20 0;
#X connect 11 0 16 0;
#X connect 12 0 11 1;
#X connect 13 0 12 0;
#X connect 14 0 12 0;
#X connect 15 0 18 0;
#X connect 17 0 19 0;
#X connect 18 0 10 0;
#X connect 19 0 18 0;
#X connect 19 1 18 1;
#X connect 20 0 9 0;
#X connect 21 0 20 1;
#X restore 190 185 pd osc;
#N canvas 97 75 604 667 osc 0;
#X floatatom 58 134 5 0 0 0 - - -;
#X obj 66 103 -;
#X obj 59 64 t f f;
#X obj 53 248 moses 0;
#X obj 61 282 bng 15 250 50 0 empty empty empty 0 -6 0 8 -262144 -1
-1;
#X obj 84 282 bng 15 250 50 0 empty empty empty 0 -6 0 8 -262144 -1
-1;
#X obj 56 207 spigot;
#X obj 58 169 t f f;
#X obj 59 27 inlet;
#X obj 166 334 osc~;
#X obj 166 252 mtof;
#X obj 67 391 *~;
#X obj 59 350 line~;
#X msg 38 310 0 10;
#X msg 92 310 1 10;
#X obj 135 27 inlet;
#X obj 50 428 outlet~;
#X obj 209 26 inlet;
#X obj 174 111 +;
#X obj 209 63 t b f;
#X obj 169 291 +~;
#X obj 283 25 inlet~;
#X connect 0 0 7 0;
#X connect 1 0 0 0;
#X connect 2 0 1 1;
#X connect 2 1 1 0;
#X connect 3 0 4 0;
#X connect 3 0 13 0;
#X connect 3 1 5 0;
#X connect 3 1 14 0;
#X connect 6 0 3 0;
#X connect 7 0 6 0;
#X connect 7 1 6 1;
#X connect 8 0 2 0;
#X connect 9 0 11 0;
#X connect 10 0 20 0;
#X connect 11 0 16 0;
#X connect 12 0 11 1;
#X connect 13 0 12 0;
#X connect 14 0 12 0;
#X connect 15 0 18 0;
#X connect 17 0 19 0;
#X connect 18 0 10 0;
#X connect 19 0 18 0;
#X connect 19 1 18 1;
#X connect 20 0 9 0;
#X connect 21 0 20 1;
#X restore 249 186 pd osc;
#N canvas 97 75 604 667 osc 0;
#X floatatom 58 134 5 0 0 0 - - -;
#X obj 66 103 -;
#X obj 59 64 t f f;
#X obj 53 248 moses 0;
#X obj 61 282 bng 15 250 50 0 empty empty empty 0 -6 0 8 -262144 -1
-1;
#X obj 84 282 bng 15 250 50 0 empty empty empty 0 -6 0 8 -262144 -1
-1;
#X obj 56 207 spigot;
#X obj 58 169 t f f;
#X obj 59 27 inlet;
#X obj 166 334 osc~;
#X obj 166 252 mtof;
#X obj 67 391 *~;
#X obj 59 350 line~;
#X msg 38 310 0 10;
#X msg 92 310 1 10;
#X obj 135 27 inlet;
#X obj 50 428 outlet~;
#X obj 209 26 inlet;
#X obj 174 111 +;
#X obj 209 63 t b f;
#X obj 169 291 +~;
#X obj 283 25 inlet~;
#X connect 0 0 7 0;
#X connect 1 0 0 0;
#X connect 2 0 1 1;
#X connect 2 1 1 0;
#X connect 3 0 4 0;
#X connect 3 0 13 0;
#X connect 3 1 5 0;
#X connect 3 1 14 0;
#X connect 6 0 3 0;
#X connect 7 0 6 0;
#X connect 7 1 6 1;
#X connect 8 0 2 0;
#X connect 9 0 11 0;
#X connect 10 0 20 0;
#X connect 11 0 16 0;
#X connect 12 0 11 1;
#X connect 13 0 12 0;
#X connect 14 0 12 0;
#X connect 15 0 18 0;
#X connect 17 0 19 0;
#X connect 18 0 10 0;
#X connect 19 0 18 0;
#X connect 19 1 18 1;
#X connect 20 0 9 0;
#X connect 21 0 20 1;
#X restore 309 186 pd osc;
#N canvas 97 75 608 671 osc 0;
#X floatatom 58 134 5 0 0 0 - - -;
#X obj 66 103 -;
#X obj 59 64 t f f;
#X obj 53 248 moses 0;
#X obj 61 282 bng 15 250 50 0 empty empty empty 0 -6 0 8 -262144 -1
-1;
#X obj 84 282 bng 15 250 50 0 empty empty empty 0 -6 0 8 -262144 -1
-1;
#X obj 56 207 spigot;
#X obj 58 169 t f f;
#X obj 59 27 inlet;
#X obj 166 334 osc~;
#X obj 166 252 mtof;
#X obj 67 391 *~;
#X obj 59 350 line~;
#X msg 38 310 0 10;
#X msg 92 310 1 10;
#X obj 135 27 inlet;
#X obj 50 428 outlet~;
#X obj 209 26 inlet;
#X obj 174 111 +;
#X obj 209 63 t b f;
#X obj 169 291 +~;
#X obj 283 25 inlet~;
#X connect 0 0 7 0;
#X connect 1 0 0 0;
#X connect 2 0 1 1;
#X connect 2 1 1 0;
#X connect 3 0 4 0;
#X connect 3 0 13 0;
#X connect 3 1 5 0;
#X connect 3 1 14 0;
#X connect 6 0 3 0;
#X connect 7 0 6 0;
#X connect 7 1 6 1;
#X connect 8 0 2 0;
#X connect 9 0 11 0;
#X connect 10 0 20 0;
#X connect 11 0 16 0;
#X connect 12 0 11 1;
#X connect 13 0 12 0;
#X connect 14 0 12 0;
#X connect 15 0 18 0;
#X connect 17 0 19 0;
#X connect 18 0 10 0;
#X connect 19 0 18 0;
#X connect 19 1 18 1;
#X connect 20 0 9 0;
#X connect 21 0 20 1;
#X restore 369 187 pd osc;
#X connect 0 0 4 0;
#X connect 1 0 17 0;
#X connect 2 0 18 0;
#X connect 3 0 19 0;
#X connect 4 0 13 0;
#X connect 5 0 4 1;
#X connect 6 0 20 0;
#X connect 7 0 21 0;
#X connect 8 0 17 1;
#X connect 9 0 18 1;
#X connect 10 0 19 1;
#X connect 11 0 20 1;
#X connect 12 0 21 1;
#X connect 14 0 12 0;
#X connect 14 0 11 0;
#X connect 14 0 10 0;
#X connect 14 0 9 0;
#X connect 14 0 8 0;
#X connect 14 0 5 0;
#X connect 15 0 4 2;
#X connect 15 0 17 2;
#X connect 15 0 18 2;
#X connect 15 0 19 2;
#X connect 15 0 20 2;
#X connect 15 0 21 2;
#X connect 16 0 4 3;
#X connect 16 0 17 3;
#X connect 16 0 18 3;
#X connect 16 0 19 3;
#X connect 16 0 20 3;
#X connect 16 0 21 3;
#X connect 17 0 13 0;
#X connect 18 0 13 0;
#X connect 19 0 13 0;
#X connect 20 0 13 0;
#X connect 21 0 13 0;
#X restore 216 243 pd oscs;
#N canvas 0 0 486 336 pitchbend 0;
#X obj 49 23 inlet;
#X obj 58 67 * 2;
#X obj 46 157 outlet;
#X obj 39 116 / 32767;
#X connect 0 0 1 0;
#X connect 1 0 3 0;
#X connect 3 0 2 0;
#X restore 46 103 pd pitchbend;
#X obj 368 185 +;
#X obj 361 137 t b f;
#N canvas 700 144 494 692 mod 0;
#X obj 147 16 inlet~;
#X obj 45 159 *~ 0.5;
#X obj 60 203 *~;
#X obj 183 598 outlet~;
#X floatatom 253 130 5 0 0 0 - - -;
#X obj 261 96 -;
#X obj 253 54 t f f;
#X obj 248 244 moses 0;
#X obj 248 282 bng 15 250 50 0 empty empty empty 0 -6 0 8 -262144 -1
-1;
#X obj 295 282 bng 15 250 50 0 empty empty empty 0 -6 0 8 -262144 -1
-1;
#X obj 251 203 spigot;
#X obj 253 165 t f f;
#X msg 227 306 0 10;
#X obj 253 16 inlet;
#X msg 296 304 1 40;
#X obj 197 547 +~;
#X obj 123 444 *~;
#X obj 273 429 -;
#X msg 236 393 1;
#X obj 227 503 *~;
#X obj 266 352 line;
#X obj 295 392 t b f;
#X obj 51 106 osc~;
#X msg 49 17 80;
#X obj 47 56 mtof;
#X obj 127 292 loadbang;
#X connect 0 0 2 0;
#X connect 0 0 19 0;
#X connect 1 0 2 1;
#X connect 2 0 16 0;
#X connect 4 0 11 0;
#X connect 5 0 4 0;
#X connect 6 0 5 1;
#X connect 6 1 5 0;
#X connect 7 0 8 0;
#X connect 7 0 12 0;
#X connect 7 1 9 0;
#X connect 7 1 14 0;
#X connect 10 0 7 0;
#X connect 11 0 10 0;
#X connect 11 1 10 1;
#X connect 12 0 20 0;
#X connect 13 0 6 0;
#X connect 14 0 20 0;
#X connect 15 0 3 0;
#X connect 16 0 15 0;
#X connect 17 0 19 1;
#X connect 18 0 17 0;
#X connect 19 0 15 1;
#X connect 20 0 16 1;
#X connect 20 0 21 0;
#X connect 21 0 17 0;
#X connect 21 1 17 1;
#X connect 22 0 1 0;
#X connect 23 0 24 0;
#X connect 24 0 22 0;
#X connect 25 0 23 0;
#X connect 25 0 18 0;
#X restore 216 280 pd mod;
#X msg 411 369 \; pd dsp 0;
#X text 337 413 on;
#X text 427 414 off;
#N canvas 286 47 917 779 joy 0;
#X obj 28 237 outlet;
#X obj 75 237 outlet;
#X obj 123 237 outlet;
#X obj 190 239 outlet;
#X obj 236 240 outlet;
#X obj 283 241 outlet;
#X obj 380 242 outlet;
#X obj 331 242 outlet;
#X obj 427 243 outlet;
#X obj 474 243 outlet;
#X obj 522 244 outlet;
#X obj 619 245 outlet;
#X obj 571 245 outlet;
#X obj 155 37 dumpOSC 10000;
#X obj 155 71 OSCroute /joy;
#X obj 92 139 bng 15 250 50 0 empty empty empty 0 -6 0 8 -262144 -1
-1;
#X obj 299 139 bng 15 250 50 0 empty empty empty 0 -6 0 8 -262144 -1
-1;
#X obj 129 106 OSCroute /pos /buttons;
#X floatatom 42 195 5 0 0 0 - - -;
#X floatatom 79 195 5 0 0 0 - - -;
#X floatatom 118 195 5 0 0 0 - - -;
#X obj 61 164 unpack f f f;
#X floatatom 214 195 5 0 0 0 - - -;
#X floatatom 230 213 5 0 0 0 - - -;
#X floatatom 251 195 5 0 0 0 - - -;
#X obj 228 163 unpack f f f f f f f f f f;
#X floatatom 266 212 5 0 0 0 - - -;
#X floatatom 289 195 5 0 0 0 - - -;
#X floatatom 302 213 5 0 0 0 - - -;
#X floatatom 325 196 5 0 0 0 - - -;
#X floatatom 339 213 5 0 0 0 - - -;
#X floatatom 362 196 5 0 0 0 - - -;
#X floatatom 377 214 5 0 0 0 - - -;
#X connect 13 0 14 0;
#X connect 14 0 17 0;
#X connect 17 0 15 0;
#X connect 17 0 21 0;
#X connect 17 1 16 0;
#X connect 17 1 25 0;
#X connect 21 0 18 0;
#X connect 21 0 0 0;
#X connect 21 1 19 0;
#X connect 21 1 1 0;
#X connect 21 2 20 0;
#X connect 21 2 2 0;
#X connect 25 0 22 0;
#X connect 25 0 3 0;
#X connect 25 1 23 0;
#X connect 25 1 4 0;
#X connect 25 2 24 0;
#X connect 25 2 5 0;
#X connect 25 3 26 0;
#X connect 25 3 7 0;
#X connect 25 4 27 0;
#X connect 25 4 6 0;
#X connect 25 5 28 0;
#X connect 25 5 8 0;
#X connect 25 6 29 0;
#X connect 25 6 9 0;
#X connect 25 7 30 0;
#X connect 25 7 10 0;
#X connect 25 8 31 0;
#X connect 25 8 12 0;
#X connect 25 9 32 0;
#X connect 25 9 11 0;
#X restore 213 34 pd joy;
#N canvas 700 144 506 704 wow 0;
#X obj 147 16 inlet~;
#X obj 60 203 *~;
#X obj 183 598 outlet~;
#X floatatom 253 130 5 0 0 0 - - -;
#X obj 261 96 -;
#X obj 253 54 t f f;
#X obj 248 244 moses 0;
#X obj 248 282 bng 15 250 50 0 empty empty empty 0 -6 0 8 -262144 -1
-1;
#X obj 295 282 bng 15 250 50 0 empty empty empty 0 -6 0 8 -262144 -1
-1;
#X obj 251 203 spigot;
#X obj 253 165 t f f;
#X msg 227 306 0 10;
#X obj 253 16 inlet;
#X msg 296 304 1 40;
#X obj 197 547 +~;
#X obj 123 444 *~;
#X obj 273 429 -;
#X msg 236 393 1;
#X obj 227 503 *~;
#X obj 266 352 line;
#X obj 295 392 t b f;
#X obj 127 292 loadbang;
#X obj 51 106 osc~ 5;
#X obj 58 154 *~ 1;
#X connect 0 0 1 0;
#X connect 0 0 18 0;
#X connect 1 0 15 0;
#X connect 3 0 10 0;
#X connect 4 0 3 0;
#X connect 5 0 4 1;
#X connect 5 1 4 0;
#X connect 6 0 7 0;
#X connect 6 0 11 0;
#X connect 6 1 8 0;
#X connect 6 1 13 0;
#X connect 9 0 6 0;
#X connect 10 0 9 0;
#X connect 10 1 9 1;
#X connect 11 0 19 0;
#X connect 12 0 5 0;
#X connect 13 0 19 0;
#X connect 14 0 2 0;
#X connect 15 0 14 0;
#X connect 16 0 18 1;
#X connect 17 0 16 0;
#X connect 18 0 14 1;
#X connect 19 0 15 1;
#X connect 19 0 20 0;
#X connect 20 0 16 0;
#X connect 20 1 16 1;
#X connect 21 0 17 0;
#X connect 22 0 23 0;
#X connect 23 0 1 1;
#X restore 216 318 pd wow;
#N canvas 147 79 693 678 vibrate 0;
#X obj 132 28 inlet;
#X obj 132 123 / 32767;
#X obj 113 274 *~;
#X obj 98 314 outlet~;
#X obj 37 138 moses 0;
#X msg 34 176 10;
#X obj 52 222 osc~;
#X msg 72 176 5;
#X obj 132 79 * 30;
#X connect 0 0 4 0;
#X connect 0 0 8 0;
#X connect 1 0 2 1;
#X connect 2 0 3 0;
#X connect 4 0 5 0;
#X connect 4 1 7 0;
#X connect 5 0 6 0;
#X connect 6 0 2 0;
#X connect 7 0 6 0;
#X connect 8 0 1 0;
#X restore 429 185 pd vibrate;
#X connect 2 0 1 0;
#X connect 2 0 1 1;
#X connect 3 0 7 0;
#X connect 4 0 8 0;
#X connect 5 0 6 0;
#X connect 6 0 4 6;
#X connect 7 0 6 0;
#X connect 7 1 6 1;
#X connect 8 0 13 0;
#X connect 12 0 5 0;
#X connect 12 1 14 0;
#X connect 12 3 4 0;
#X connect 12 4 4 1;
#X connect 12 5 4 2;
#X connect 12 6 4 3;
#X connect 12 7 4 4;
#X connect 12 8 4 5;
#X connect 12 9 3 0;
#X connect 12 10 3 1;
#X connect 12 11 13 1;
#X connect 12 12 8 1;
#X connect 13 0 2 0;
#X connect 14 0 4 7;
